<?xml version="1.0" standalone="no"?>
<!DOCTYPE svg PUBLIC "-//W3C//DTD SVG 20010904//EN"
 "http://www.w3.org/TR/2001/REC-SVG-20010904/DTD/svg10.dtd">
<svg version="1.0" xmlns="http://www.w3.org/2000/svg"
 width="512.000000pt" height="512.000000pt" viewBox="0 0 512.000000 512.000000"
 preserveAspectRatio="xMidYMid meet">

<g transform="translate(0.000000,512.000000) scale(0.100000,-0.100000)"
fill="#000000" stroke="none">
<path d="M870 5114 c-148 -23 -245 -53 -357 -114 -243 -131 -414 -354 -489
-635 -17 -67 -18 -154 -21 -1764 -4 -1831 -5 -1777 48 -1933 107 -313 339
-531 674 -635 l90 -28 1695 -3 c1252 -2 1715 0 1770 8 221 35 426 142 575 302
112 119 186 253 232 423 l28 100 0 1725 0 1725 -28 100 c-63 229 -179 401
-362 537 -138 104 -295 167 -460 187 -84 10 -3329 14 -3395 5z m2130 -2504 l0
-2030 -230 0 -230 0 -2 247 -3 248 -34 -60 c-205 -363 -414 -487 -841 -502
-141 -4 -179 -2 -261 15 -496 103 -826 523 -915 1167 -23 168 -15 521 15 684
87 464 330 829 656 986 286 138 673 138 945 0 143 -72 247 -170 349 -327 33
-51 67 -102 76 -113 15 -18 16 51 12 848 l-5 867 234 0 234 0 0 -2030z m1710
-1700 l0 -330 -330 0 -330 0 0 330 0 330 330 0 330 0 0 -330z"/>
<path d="M1595 3066 c-283 -66 -491 -273 -580 -581 -55 -192 -76 -450 -57
-695 30 -362 97 -555 247 -705 140 -140 281 -202 482 -212 126 -7 202 5 303
44 288 114 471 398 531 823 17 124 15 415 -4 530 -56 331 -203 591 -403 713
-103 62 -201 89 -339 93 -79 2 -141 -1 -180 -10z"/>
</g>
</svg>
